<svg width="51" height="29" viewBox="0 0 51 29" fill="none" xmlns="http://www.w3.org/2000/svg">
<path d="M0.149902 0.149902V21.7863H4.21921C5.48635 21.7863 6.51347 20.759 6.51347 19.4921V8.80779C6.51347 7.54071 7.54076 6.51353 8.80772 6.51353H19.4921C20.759 6.51353 21.7863 7.54071 21.7863 8.80779V23.7379C21.7863 26.1745 23.7615 28.1499 26.1984 28.1499H49.2622C49.652 28.1499 49.9681 27.8338 49.9681 27.444V24.0806C49.9681 22.8135 48.9408 21.7863 47.6738 21.7863H30.6259C29.359 21.7863 28.3317 20.759 28.3317 19.4921V8.80779C28.3317 7.54071 29.359 6.51353 30.6259 6.51353H47.6738C48.9408 6.51353 49.9681 5.48636 49.9681 4.21928V0.149902H28.9437C28.5419 0.149902 28.146 0.247955 27.7904 0.435557L25.5532 1.61632C25.244 1.77955 24.874 1.77955 24.5647 1.61632L22.3274 0.435557C21.972 0.247955 21.5761 0.149902 21.1743 0.149902H0.149902Z" fill="url(#paint0_linear_11_500)" stroke="black" stroke-width="0.3"/>
<path d="M0.149902 25.3531V28.1498H6.51347V23.0588H2.44416C1.17702 23.0588 0.149902 24.0861 0.149902 25.3531Z" fill="url(#paint1_linear_11_500)" stroke="black" stroke-width="0.3"/>
<defs>
<linearGradient id="paint0_linear_11_500" x1="25.059" y1="0.149902" x2="25.059" y2="28.1499" gradientUnits="userSpaceOnUse">
<stop stop-color="#81E8FF"/>
<stop offset="1" stop-color="#0570FB"/>
</linearGradient>
<linearGradient id="paint1_linear_11_500" x1="3.33168" y1="23.0588" x2="3.33168" y2="28.1498" gradientUnits="userSpaceOnUse">
<stop stop-color="#81E8FF"/>
<stop offset="1" stop-color="#0570FB"/>
</linearGradient>
</defs>
</svg>
